<svg width="512" height="512" viewBox="0 0 512 512" fill="none" xmlns="http://www.w3.org/2000/svg">
<path fill-rule="evenodd" clip-rule="evenodd" d="M270.258 330.824C270.258 294.992 270.258 260.158 270.258 224.991C293.666 224.991 316.962 224.991 340.814 224.991C340.814 259.936 340.814 294.992 340.814 330.38C364.332 330.38 387.296 330.38 409.261 330.38C374.538 365.103 339.593 400.048 304.87 434.771C271.035 400.936 236.09 365.991 200.923 330.824C223.665 330.824 246.629 330.824 270.258 330.824Z" fill="#5E35B1"/>
<path d="M435.997 202.027C430.45 110.837 369.103 78 311.416 78C270.036 78 231.541 99.5216 208.245 134.91C205.028 134.578 201.7 134.356 198.371 134.356C156.105 134.356 121.271 164.752 107.182 197.589H104.408C52.9339 197.589 11 240.189 11 292.44C11 344.691 53.0449 387.401 104.519 387.401H238.087L205.693 353.566H104.519C72.2369 353.566 44.9465 325.61 44.9465 292.551C44.9465 259.492 72.2369 231.536 104.519 231.536H119.274C127.039 231.536 133.807 226.322 135.692 218.778C141.905 194.483 167.642 168.191 198.371 168.191C202.365 168.191 206.359 168.635 210.242 169.522L210.907 169.744C211.573 169.966 212.128 170.077 212.793 170.299C220.337 172.074 228.102 168.524 231.763 161.757C247.96 131.028 278.468 111.947 311.416 111.947C369.324 111.947 402.494 149.776 402.494 215.672C402.494 224.103 408.707 231.203 417.027 232.423C445.981 236.639 467.836 262.598 467.836 292.662C467.836 325.721 440.546 353.566 408.263 353.566H403.493L372.542 387.401H408.263C459.738 387.401 501.671 344.913 501.671 292.662C501.671 250.839 474.27 214.119 435.997 202.027Z" fill="#3F51B5"/>
</svg>
