<?xml version="1.0" standalone="no"?>
<!DOCTYPE svg PUBLIC "-//W3C//DTD SVG 20010904//EN"
 "http://www.w3.org/TR/2001/REC-SVG-20010904/DTD/svg10.dtd">
<svg version="1.0" xmlns="http://www.w3.org/2000/svg"
 width="512.000000pt" height="512.000000pt" viewBox="0 0 512.000000 512.000000"
 preserveAspectRatio="xMidYMid meet">
<metadata>
Created by potrace 1.14, written by Peter Selinger 2001-2017
</metadata>
<g transform="translate(0.000000,512.000000) scale(0.100000,-0.100000)"
fill="#000000" stroke="none">
<path d="M2930 4325 c-176 -28 -375 -110 -519 -212 -89 -64 -215 -187 -276
-271 l-50 -68 -110 -1 c-121 -1 -203 -17 -322 -63 -219 -84 -430 -275 -543
-491 l-39 -76 -98 -6 c-158 -9 -297 -56 -434 -146 -367 -241 -520 -706 -369
-1123 50 -137 111 -231 224 -344 109 -108 194 -166 318 -214 155 -60 163 -61
946 -58 l713 3 -156 163 -157 162 -516 0 c-582 1 -621 4 -749 66 -97 46 -221
166 -271 261 -67 127 -88 288 -56 423 27 118 78 206 168 296 134 132 233 171
466 181 199 8 216 19 272 168 57 154 154 275 290 363 135 88 280 117 431 87
82 -16 91 -16 131 -1 52 20 68 37 131 140 226 370 660 523 1090 385 115 -36
201 -87 288 -169 182 -170 271 -400 292 -754 10 -159 46 -214 155 -231 64 -10
160 -48 222 -88 65 -42 156 -138 196 -209 84 -148 102 -340 46 -498 -38 -108
-88 -183 -172 -261 -102 -93 -216 -141 -371 -155 l-71 -7 -150 -163 -151 -164
231 0 c256 0 330 10 460 61 156 62 320 191 416 325 343 480 173 1158 -353
1412 -44 21 -90 41 -101 44 -16 5 -21 17 -27 69 -22 208 -63 366 -135 516 -65
137 -133 233 -233 330 -167 162 -359 259 -608 308 -116 23 -342 28 -449 10z"/>
<path d="M2700 2340 l0 -530 -342 0 -343 0 518 -517 517 -518 522 523 523 522
-343 0 -342 0 0 525 0 525 -355 0 -355 0 0 -530z"/>
</g>
</svg>
