<svg width="4960" height="3583" viewBox="0 0 4960 3583" fill="none" xmlns="http://www.w3.org/2000/svg">
<g clip-path="url(#clip0_2_205)">
<path opacity="0.75" d="M578.931 1081.97L580.286 1076.82C530.911 1063.58 493.982 1028.89 470.506 973.755C446.889 918.29 445.718 862.688 445.927 846.968C446.331 816.101 451.086 765.524 471.515 699.884C490.924 637.484 519.752 576.707 557.175 519.25C643.216 387.143 763.326 280.301 904.54 210.259C958.674 183.412 1016.42 164.563 1071.57 155.766C1130.13 146.411 1184.07 148.175 1231.91 161.005C1338.37 189.555 1385.95 277.818 1386.21 447.192C1386.44 601.19 1469.55 677.565 1557.52 758.419L1560.08 760.768C1603.86 801.007 1633 850.65 1642.14 900.558C1651.68 952.598 1639.22 1000.19 1606.11 1038.21C1576.44 1072.29 1536.92 1093.5 1488.64 1101.27C1441.06 1108.93 1383.44 1103.82 1317.36 1086.11C1302.43 1082.1 1286.78 1077.37 1270.87 1072.05C1241.12 1062.13 1214.62 1054.08 1189.85 1047.43C1033.76 1005.57 904.957 1011.35 714.631 1068.76C663.297 1084.25 618.098 1086.97 580.307 1076.83L578.931 1081.97ZM578.91 1081.96C614.952 1091.63 659.976 1090.79 716.134 1073.85C918.103 1012.93 1043.26 1013.63 1188.48 1052.57C1214.56 1059.57 1241.27 1067.79 1269.2 1077.12C1285.22 1082.46 1300.83 1087.19 1315.99 1091.25C1448.5 1126.79 1548.01 1112.96 1610.06 1041.72C1681.38 959.823 1653.58 839.512 1563.63 756.842C1473.69 674.172 1391.71 600.276 1391.47 447.17C1391.24 294.043 1353.24 188.035 1233.29 155.866C1133.23 129.032 1010.32 151.879 902.242 205.49C752.795 279.613 634.442 390.97 552.786 516.343C471.127 641.726 441.709 766.027 440.663 846.923C439.859 908.76 462.05 1050.62 578.91 1081.96Z" fill="#008CEF"/>
<path opacity="0.75" d="M631.04 1040.87L632.396 1035.72C588.126 1023.85 555.002 992.735 533.934 943.264C512.718 893.444 511.67 843.492 511.852 829.375C512.215 801.635 516.495 756.175 534.858 697.152C552.322 641.039 578.234 586.388 611.895 534.717C689.276 415.908 797.311 319.806 924.319 256.818C972.986 232.68 1024.92 215.729 1074.48 207.816C1127.12 199.406 1175.6 200.984 1218.58 212.509C1314.13 238.132 1356.83 317.41 1357.06 469.567C1357.27 608.391 1432.15 677.207 1511.42 750.064L1513.72 752.18C1553.03 788.322 1579.2 832.895 1587.42 877.696C1595.97 924.372 1584.79 967.047 1555.12 1001.13C1528.49 1031.7 1493.02 1050.74 1449.7 1057.72C1406.96 1064.6 1355.17 1060.02 1295.76 1044.09C1282.33 1040.48 1268.26 1036.24 1253.96 1031.47C1227.16 1022.53 1203.31 1015.27 1181.01 1009.29C1040.42 971.589 924.424 976.789 753.035 1028.48C706.914 1042.37 666.332 1044.82 632.416 1035.73L631.04 1040.87ZM631.02 1040.86C663.461 1049.56 703.973 1048.8 754.52 1033.56C936.295 978.739 1048.94 979.369 1179.64 1014.42C1203.11 1020.72 1227.13 1028.11 1252.28 1036.5C1266.69 1041.31 1280.75 1045.56 1294.39 1049.22C1413.65 1081.2 1503.22 1068.76 1559.06 1004.63C1623.25 930.927 1598.23 822.653 1517.28 748.244C1436.33 673.835 1362.55 607.328 1362.33 469.538C1362.12 331.739 1327.92 236.323 1219.95 207.37C1129.9 183.219 1019.29 203.787 922.013 252.036C787.51 318.753 681.002 418.966 607.507 531.811C534.011 644.654 507.539 756.527 506.597 829.343C505.872 884.977 525.855 1012.65 631.02 1040.86Z" fill="#008CEF"/>
<path opacity="0.75" d="M683.149 999.76L684.504 994.616C645.329 984.11 616.014 956.564 597.373 912.766C578.558 868.592 577.632 824.291 577.79 811.775C578.104 787.151 581.907 746.805 598.211 694.414C613.718 644.594 636.729 596.06 666.62 550.164C735.351 444.646 831.298 359.293 944.094 303.343C1035.05 258.238 1130.24 243.897 1205.26 264.016C1289.88 286.711 1327.71 357.003 1327.91 491.947C1328.11 615.608 1394.75 676.86 1465.32 741.71L1467.36 743.592C1502.23 775.634 1525.42 815.133 1532.68 854.833C1540.26 896.136 1530.37 933.899 1504.1 964.059C1480.53 991.127 1449.13 1007.99 1410.76 1014.16C1372.84 1020.27 1326.89 1016.19 1274.17 1002.06C1262.23 998.853 1249.73 995.073 1237.03 990.841C1213.21 982.888 1192 976.437 1172.17 971.119C1047.08 937.575 943.887 942.198 791.423 988.182C750.527 1000.51 714.564 1002.69 684.521 994.632L683.149 999.76ZM683.138 999.758C711.97 1007.49 747.99 1006.82 792.918 993.265C954.489 944.535 1054.61 945.08 1170.79 976.238C1191.66 981.832 1213.02 988.41 1235.36 995.868C1248.19 1000.14 1260.67 1003.92 1272.8 1007.17C1378.81 1035.6 1458.42 1024.54 1508.06 967.542C1565.11 902.029 1542.87 805.781 1470.92 739.643C1398.96 673.506 1333.37 614.387 1333.18 491.905C1332.99 369.425 1302.6 284.613 1206.64 258.878C1126.57 237.408 1028.26 255.688 941.796 298.574C822.238 357.877 727.562 446.953 662.231 547.258C596.9 647.564 573.373 747.007 572.536 811.733C571.894 861.198 589.649 974.675 683.138 999.758Z" fill="#008CEF"/>
<path opacity="0.75" d="M735.268 958.658L736.634 953.516C661.939 933.473 643.106 843.932 643.739 794.177C644.077 767.995 650.683 674.148 721.353 565.625C781.426 473.393 865.285 398.789 963.875 349.891C1043.32 310.489 1126.45 297.959 1191.93 315.521C1265.64 335.289 1298.59 396.605 1298.77 514.315C1298.94 622.812 1357.36 676.504 1419.21 733.345L1421.01 734.994C1451.39 762.928 1471.63 797.369 1477.97 831.962C1484.54 867.887 1475.95 900.747 1453.11 926.975C1432.59 950.542 1405.24 965.217 1371.83 970.589C1338.75 975.917 1298.64 972.351 1252.6 960.005C1242.16 957.206 1231.25 953.916 1220.14 950.2C1199.29 943.242 1180.72 937.588 1163.35 932.93C1053.76 903.542 963.376 907.592 829.838 947.866C794.17 958.625 762.826 960.519 736.66 953.502L735.278 958.661L735.268 958.658ZM735.247 958.653C760.479 965.419 791.997 964.827 831.304 952.974C972.68 910.34 1060.29 910.822 1161.96 938.087C1180.21 942.982 1198.9 948.733 1218.45 955.265C1229.66 959.011 1240.59 962.314 1251.21 965.162C1343.96 990.038 1413.62 980.364 1457.06 930.489C1506.98 873.166 1487.51 788.951 1424.56 731.078C1361.61 673.205 1304.21 621.482 1304.04 514.307C1303.88 407.111 1277.27 332.901 1193.31 310.381C1123.26 291.598 1037.22 307.586 961.567 345.119C856.954 397.007 774.108 474.956 716.944 562.713C659.777 650.48 639.196 737.494 638.458 794.115C637.907 837.415 653.444 936.703 735.247 958.653Z" fill="#008CEF"/>
<path opacity="0.75" d="M787.378 917.553L788.744 912.411C725.164 895.35 709.134 818.996 709.677 776.576C709.972 754.183 715.61 673.924 776.086 581.085C827.501 502.141 899.279 438.298 983.668 396.442C1051.59 362.741 1122.64 352.019 1178.61 367.028C1241.41 383.869 1269.47 436.198 1269.64 536.694C1269.77 630.025 1319.96 676.159 1373.11 725.001L1374.64 726.403C1400.57 750.243 1417.83 779.604 1423.23 809.099C1428.82 839.66 1421.52 867.597 1402.1 889.896C1384.63 909.953 1361.34 922.455 1332.87 927.037C1304.63 931.589 1270.34 928.542 1230.97 917.985C1222.04 915.59 1212.71 912.767 1203.19 909.6C1185.31 903.624 1169.37 898.788 1154.47 894.792C1060.4 869.564 982.809 873.035 868.196 907.6C837.759 916.776 811.031 918.41 788.739 912.432L787.368 917.55L787.378 917.553ZM787.357 917.548C808.979 923.346 835.992 922.847 869.691 912.684C990.875 876.135 1065.96 876.553 1153.1 899.921C1168.74 904.116 1184.77 909.054 1201.53 914.639C1211.14 917.844 1220.5 920.675 1229.61 923.117C1309.12 944.439 1368.83 936.139 1406.05 893.389C1448.84 844.256 1432.16 772.068 1378.2 722.464C1324.23 672.862 1275.04 628.517 1274.9 536.663C1274.76 444.797 1251.94 381.188 1179.98 361.889C1119.94 345.787 1046.21 359.501 981.359 391.67C891.69 436.153 820.678 502.956 771.685 578.186C722.692 653.417 705.036 727.996 704.411 776.541C703.934 813.625 717.249 898.735 787.357 917.548Z" fill="#008CEF"/>
<path opacity="0.75" d="M839.485 876.449L840.851 871.307C788.387 857.226 775.157 794.071 775.614 758.975C775.851 740.378 780.542 673.712 830.807 596.543C873.561 530.897 933.263 477.795 1003.44 442.977C1059.86 414.993 1118.85 406.082 1165.28 418.532C1217.16 432.447 1240.35 475.79 1240.48 559.071C1240.6 637.239 1282.58 675.814 1327 716.646L1328.27 717.825C1373.45 759.354 1383.05 816.126 1351.09 852.819C1322.05 886.163 1275.7 893.738 1209.38 875.953C1201.96 873.962 1194.19 871.615 1186.29 868.977C1171.37 863.996 1158.07 859.954 1145.63 856.618C1067.06 835.549 1002.27 838.444 906.593 867.302C881.384 874.906 859.266 876.256 840.849 871.317L839.475 876.445L839.485 876.449ZM839.475 876.445C857.496 881.279 880.008 880.86 908.088 872.385C1009.08 841.932 1071.65 842.277 1144.27 861.75C1157.3 865.247 1170.65 869.356 1184.62 874.017C1192.63 876.693 1200.43 879.05 1208.02 881.085C1274.27 898.853 1324.03 891.939 1355.06 856.315C1390.71 815.371 1376.82 755.209 1331.84 713.879C1286.87 672.538 1245.87 635.59 1245.76 559.045C1245.63 482.483 1226.63 429.479 1166.65 413.393C1116.61 399.975 1055.16 411.398 1001.13 438.205C926.406 475.272 867.227 530.939 826.398 593.63C785.568 656.323 770.859 718.473 770.34 758.927C769.944 789.842 781.041 860.763 839.475 876.445Z" fill="#008CEF"/>
<path opacity="0.75" d="M891.591 835.342L892.957 830.201C841.174 816.302 841.507 744.425 841.549 741.374C841.739 726.576 845.477 673.489 885.524 612.009C919.629 559.653 967.244 517.299 1023.22 489.524C1068.13 467.243 1115.05 460.14 1151.95 470.038C1192.93 481.027 1211.25 515.384 1211.33 581.448C1211.42 644.451 1245.17 675.455 1280.88 708.288L1281.91 709.223C1317.61 742.041 1325.25 786.833 1300.09 815.742C1277.14 842.086 1240.4 848.031 1187.77 833.917C1181.86 832.33 1175.67 830.46 1169.37 828.362C1157.4 824.373 1146.75 821.127 1136.77 818.454C1073.72 801.542 1021.73 803.861 944.976 827.011C924.997 833.032 907.497 834.111 892.955 830.21L891.581 835.34L891.591 835.342ZM891.581 835.34C906.002 839.207 924.012 838.871 946.471 832.093C1027.26 807.723 1077.33 808.007 1135.41 823.586C1145.84 826.384 1156.52 829.666 1167.7 833.401C1174.1 835.537 1180.36 837.423 1186.42 839.048C1239.42 853.264 1279.22 847.734 1304.04 819.238C1332.57 786.48 1321.45 738.356 1285.48 705.29C1249.5 672.221 1216.71 642.664 1216.61 581.422C1216.51 520.168 1201.32 477.767 1153.32 464.899C1113.3 454.165 1064.15 463.301 1020.91 484.752C961.13 514.404 913.791 558.947 881.125 609.1C848.46 659.252 836.696 708.974 836.273 741.335C835.954 766.058 844.83 822.802 891.581 835.34Z" fill="#008CEF"/>
<path d="M4020.14 2949.9C3917.18 3099.48 3648.39 3248.83 3347.93 3170.34C3047.47 3091.86 3044.62 2844.85 3210.52 2756.42C3376.43 2667.99 3437.82 2558.64 3462.58 2420.3C3487.35 2281.97 3626.43 2147.94 3829.15 2226.53C4031.88 2305.1 4246.1 2621.65 4020.14 2949.9Z" fill="#FF8A80"/>
<path d="M182.371 1096.1C153.8 1117.72 139.302 1156.12 145.698 1191.4C151.384 1222.84 171.995 1254.85 159.629 1284.15C146.836 1314.31 108.598 1321.13 77.1845 1330.24C53.0199 1337.35 29.1395 1348.87 13.7879 1368.79C-1.42155 1388.84 -5.6859 1418.71 9.2393 1439.06C27.0074 1463.23 67.8029 1471.07 71.6408 1500.93C74.9102 1526.11 47.4763 1546.59 48.3291 1571.91C48.8977 1589.7 64.1072 1604.34 80.8803 1610.18C97.7955 1616.01 116.132 1614.73 133.9 1613.45C158.35 1611.75 183.509 1609.75 206.11 1600.07C228.711 1590.41 248.753 1571.2 252.734 1547.03C256.145 1526.53 247.9 1506.05 242.784 1485.85C237.666 1465.65 236.813 1441.61 251.454 1426.82C260.694 1417.43 274.34 1413.87 284.148 1405.2C305.327 1386.28 300.92 1352 290.97 1325.4C281.02 1298.8 267.232 1270.49 275.476 1243.32C281.162 1224.69 296.229 1210.46 304.759 1192.97C343.422 1113.88 249.748 1045.31 182.371 1096.1Z" fill="url(#paint0_linear_2_205)"/>
<path d="M380.237 2061.1C344.275 2071.2 313.714 2101.5 303.621 2136.92C298.93 2153.56 298.504 2170.77 299.357 2187.7C304.048 2280.3 356.784 2341.89 404.686 2413.3C457.848 2492.53 527.357 2560.39 598.856 2623.4C627.995 2649.15 660.404 2671.49 689.544 2697.37C727.781 2731.37 772.13 2787.55 827.282 2732.51C865.236 2694.67 846.33 2661.23 826.714 2624.54C803.686 2581.58 656.851 2334.22 621.741 2285.42C588.763 2239.48 554.791 2194.24 520.961 2149.01C485.566 2101.07 455.29 2040.05 380.237 2061.1Z" fill="url(#paint1_linear_2_205)"/>
<path d="M299.072 1998.94C264.532 1983.58 221.746 1988.84 192.038 2012.17C178.108 2023.12 167.162 2037.35 157.354 2052.28C103.908 2133.65 107.32 2220.85 100.923 2313.16C93.8157 2415.58 106.609 2519.14 123.95 2619.98C131.058 2661.25 142.713 2701.5 149.679 2742.89C158.776 2797.09 158.918 2874.04 236.387 2864.23C289.549 2857.54 295.377 2816.72 302.626 2772.62C311.013 2720.98 348.255 2414.02 350.813 2349.43C353.23 2288.7 354.367 2227.82 355.789 2166.94C357.21 2102.77 370.998 2030.95 299.072 1998.94Z" fill="url(#paint2_linear_2_205)"/>
<path d="M162.046 3388.69L164.177 3486.84H179.529L182.514 3409.18L162.046 3388.69Z" fill="url(#paint3_linear_2_205)"/>
<path d="M299.357 3463.94C299.357 3463.94 366.449 3556.11 356.926 3570.91C347.402 3585.85 274.198 3587.84 229.706 3570.91C185.214 3553.98 184.078 3444.17 163.894 3396.94C155.506 3377.17 173.559 3318.84 198.861 3314.58C224.163 3310.32 254.013 3323.68 254.013 3323.68C254.013 3323.68 228 3390.97 299.357 3463.94Z" fill="url(#paint4_linear_2_205)"/>
<path d="M255.577 3335.92C257.851 3305.33 261.404 3256.26 265.527 3200.78H167.447C178.392 3261.52 191.754 3327.24 194.028 3342.46C193.175 3352.28 192.607 3364.36 193.46 3378.17C195.592 3416.43 213.644 3479.87 236.956 3501.78C260.267 3523.68 317.552 3516 319.684 3507.47C321.816 3499.08 276.188 3428.94 267.802 3398.22C262.115 3377.45 257.851 3351 255.577 3335.92Z" fill="url(#paint5_linear_2_205)"/>
<path d="M154.938 3123.97C160.908 3168.64 175.833 3246.02 185.499 3296.52H258.419C268.369 3161.38 288.839 2881.16 289.975 2856.4C291.397 2822.69 296.657 2793.39 267.802 2769.2C259.983 2762.66 250.601 2758.11 240.793 2755.98C239.798 2755.69 238.803 2755.54 237.808 2755.41C191.327 2748.02 159.487 2783.86 153.375 2825.68C145.556 2879.16 138.165 2929.66 141.008 2983.57C143.567 3030.66 148.826 3077.45 154.938 3123.97Z" fill="url(#paint6_linear_2_205)"/>
<path d="M240.793 1093.82C217.481 1128.53 207.389 1173.62 217.197 1219C227.289 1265.8 255.718 1309.89 293.387 1339.2C334.609 1371.34 381.943 1369.92 426.719 1344.03C456.143 1327.1 479.739 1301.22 496.938 1271.91C559.482 1166.37 463.392 1015.02 341.432 1030.81C300.21 1036.07 263.821 1059.54 240.793 1093.82Z" fill="url(#paint7_linear_2_205)"/>
<path d="M878.596 1488.85C856.137 1512.17 821.739 1524.54 818.754 1525.54C767.155 1542.33 713.14 1551.15 659.125 1554.42C614.776 1557.12 570.285 1556.41 526.077 1552.43C487.414 1548.87 357.209 1544.03 395.02 1475.04C404.402 1457.83 423.307 1448.3 441.501 1443.46C523.519 1421.28 812.5 1422.56 812.5 1422.56L878.596 1488.85Z" fill="url(#paint8_linear_2_205)"/>
<path d="M539.724 1675.33C535.744 1633.93 451.594 1445.74 451.594 1445.74C451.594 1445.74 428.282 1441.48 413.499 1436.35C406.108 1404.63 411.225 1375.19 411.225 1375.19L323.806 1287.99C334.183 1383.43 295.662 1417.43 295.662 1417.43C282.015 1418.14 237.524 1420.42 217.481 1423.13C204.546 1424.83 193.601 1428.67 184.504 1433.22C164.177 1443.46 154.227 1466.93 159.771 1488.98C174.411 1547.73 205.115 1679.31 207.531 1755.41C210.659 1855.56 151.669 2077.45 151.669 2077.45L513.57 2076.32C488.978 1976.17 472.348 1834.07 472.348 1833.93C462.255 1757.83 546.831 1750.57 539.724 1675.33Z" fill="url(#paint9_linear_2_205)"/>
<path d="M547.826 1675.33C543.846 1633.93 451.452 1452.42 451.452 1452.42C451.452 1452.42 439.512 1440.62 407.956 1443.46C407.529 1443.46 396.442 1533.5 396.442 1533.5L311.013 1431.52C279.599 1426.68 269.222 1425.11 269.222 1425.11C255.577 1425.83 237.524 1427.25 217.481 1429.95C217.197 1429.95 216.913 1430.1 216.486 1430.1V2095.67C246.195 2106.62 277.041 2114.3 309.875 2117.15C388.34 2123.84 460.692 2109.46 528.21 2075.75C503.477 1971.77 472.205 1834.07 472.205 1834.07C462.255 1757.83 555.076 1750.57 547.826 1675.33Z" fill="url(#paint10_linear_2_205)"/>
<path d="M314.424 2186.7C352.661 2160.53 345.696 2064.79 345.554 2017.43C345.27 1832.94 344.986 1648.44 344.701 1463.94C324.517 1442.89 295.804 1414.59 269.222 1418.29C255.577 1418.99 237.524 1420.42 217.481 1423.13C204.546 1424.83 193.602 1428.67 184.504 1433.22C164.177 1443.46 154.227 1466.93 159.771 1488.98C174.411 1547.73 205.115 1679.31 207.531 1755.41C210.659 1855.55 110.731 2134.64 110.874 2134.78C151.811 2150.43 274.766 2213.73 314.424 2186.7Z" fill="url(#paint11_linear_2_205)"/>
<path d="M547.826 1675.33C543.846 1633.93 451.451 1445.74 451.451 1445.74C451.451 1445.74 439.37 1435.5 410.229 1440.33C410.798 1476.19 413.499 1540.05 414.068 1575.9C415.347 1655.13 416.769 1734.5 418.048 1813.74C419.328 1894.1 427.145 1987.56 428.425 2068.07C428.851 2097.95 424.728 2152.28 457.848 2168.49C468.794 2173.9 554.365 2143.6 553.37 2139.33C528.778 2039.19 498.36 1841.33 498.36 1841.33C488.125 1764.94 555.075 1750.57 547.826 1675.33Z" fill="url(#paint12_linear_2_205)"/>
<path d="M545.41 1710.46C521.814 1718.85 501.914 1726.82 486.561 1734.78C482.866 1736.63 479.739 1738.63 476.896 1740.76C476.896 1740.48 476.896 1740.19 476.896 1740.19C476.896 1740.19 251.596 1558.82 173.558 1524.97C171.569 1524.11 169.721 1523.26 167.873 1522.27C178.818 1568.64 193.033 1633.22 201.135 1689.69C224.589 1710.17 249.038 1729.52 274.624 1747.44C318.973 1778.6 366.734 1805.34 417.479 1824.4C420.465 1825.53 476.469 1834.79 476.611 1834.64C476.611 1834.64 476.611 1834.5 476.611 1834.36C482.44 1836.34 489.689 1837.21 498.075 1837.06C492.106 1777.88 533.754 1756.55 545.41 1710.46Z" fill="url(#paint13_linear_2_205)"/>
<path d="M487.699 1153.28C496.512 1204.49 513.996 1331.66 459.554 1379.6C459.554 1379.6 342.427 1393.82 287.133 1295.53C231.981 1197.38 468.794 1043.18 487.699 1153.28Z" fill="url(#paint14_linear_2_205)"/>
<path d="M468.794 1221.84V1299.37H505.751L468.794 1221.84Z" fill="url(#paint15_linear_2_205)"/>
<path d="M422.312 1094.1C427.003 1112.88 422.596 1133.37 404.402 1151.01C380.095 1174.76 355.646 1198.94 328.496 1219.28L310.871 1253.85C310.871 1253.85 281.305 1187.14 281.162 1186.99C276.613 1185.43 244.062 1169.78 243.636 1165.66C240.936 1131.8 245.768 1093.4 268.511 1066.65C288.98 1042.47 322.811 1032.8 353.514 1036.92C387.061 1041.61 415.205 1065.8 422.312 1094.1Z" fill="url(#paint16_linear_2_205)"/>
<path d="M310.871 1226.11C310.871 1226.11 291.397 1184.15 269.506 1203.21C247.758 1222.27 262.684 1300.93 310.871 1316.86V1226.11Z" fill="url(#paint17_linear_2_205)"/>
<path d="M972.128 1030.95L1042.77 934.932C1042.77 934.932 1055.85 948.445 1053 961.248C1050.16 974.05 1055.85 983.58 1055 995.244C1054 1006.91 1064.67 1034.65 1058.13 1053.28C1051.58 1071.92 1022.59 1082.87 1015.06 1100.22C1007.52 1117.72 994.302 1155.84 994.302 1155.84L930.337 1127.39L951.09 1076.89C951.09 1076.89 935.313 1016.72 964.31 980.025L972.128 1030.95Z" fill="url(#paint18_linear_2_205)"/>
<path d="M864.809 1499.79C864.809 1499.79 781.37 1475.04 797.149 1410.47C812.926 1345.88 880.019 1253.71 950.807 1070.92L1011.79 1103.64C1011.93 1103.64 931.902 1462.66 864.809 1499.79Z" fill="url(#paint19_linear_2_205)"/>
<path d="M1005.53 916.866L1041.35 957.122L1043.06 1035.64L978.951 963.238C978.951 963.238 983.926 949.015 994.303 958.402L980.798 939.911C980.798 939.911 970.422 917.72 1005.53 916.866Z" fill="url(#paint20_linear_2_205)"/>
<path d="M396.584 1533.37L428.851 1502.92L410.23 1411.6C410.23 1411.74 395.02 1531.51 396.584 1533.37Z" fill="url(#paint21_linear_2_205)"/>
<path d="M410.229 1411.74L428.851 1502.92L482.865 1515.44L410.229 1411.74Z" fill="url(#paint22_linear_2_205)"/>
<path d="M278.888 1415.44L333.472 1538.62L380.095 1493.54L291.681 1405.35L278.888 1415.44Z" fill="url(#paint23_linear_2_205)"/>
<path d="M380.096 1493.54L396.584 1533.37L362.753 1510.18L380.096 1493.54Z" fill="url(#paint24_linear_2_205)"/>
<path d="M2812.33 1162.24L2295.64 791.973L2136.15 677.748L658.131 1737.35V2176.75V2851.57V3286.28C658.131 3437.62 780.659 3560.24 931.901 3560.24H3340.97C3492.21 3560.24 3614.74 3437.62 3614.74 3286.28V2851.57V2176.75V1737.35L2812.33 1162.24Z" fill="#F2F2F2"/>
<path d="M3314.54 591.974H958.624V3320.13H3314.54V591.974Z" fill="white"/>
<path d="M1993.3 764.093H1164.45V1468.22H1993.3V764.093Z" fill="url(#paint25_linear_2_205)"/>
<path d="M3108.71 959.683H2107.86V1071.92H3108.71V959.683Z" fill="url(#paint26_linear_2_205)"/>
<path d="M3108.71 1155.27H2107.86V1267.51H3108.71V1155.27Z" fill="url(#paint27_linear_2_205)"/>
<path d="M3108.71 1351.01H2107.86V1463.23H3108.71V1351.01Z" fill="url(#paint28_linear_2_205)"/>
<path d="M3108.71 1546.45H1164.45V1658.69H3108.71V1546.45Z" fill="url(#paint29_linear_2_205)"/>
<path d="M3108.71 1742.18H1164.45V1854.42H3108.71V1742.18Z" fill="url(#paint30_linear_2_205)"/>
<path d="M3108.71 1937.77H1164.45V2050.01H3108.71V1937.77Z" fill="url(#paint31_linear_2_205)"/>
<path d="M3108.71 2133.36H1164.45V2245.6H3108.71V2133.36Z" fill="url(#paint32_linear_2_205)"/>
<path d="M3108.71 2328.95H1164.45V2441.19H3108.71V2328.95Z" fill="url(#paint33_linear_2_205)"/>
<path d="M3211.05 1986.28L2581.92 2374.19L2275.31 2563.24C2190.16 2615.73 2082.7 2615.73 1997.56 2563.24L658.414 1737.48V2212.02V3295.24V3302.34H659.125C662.963 3445.31 779.38 3560.25 923.23 3560.25H3349.93C3493.78 3560.25 3610.2 3445.31 3614.03 3302.34H3614.74V3295.24V2212.02V1737.48L3211.05 1986.28Z" fill="url(#paint34_linear_2_205)"/>
<path opacity="0.42" d="M3314.54 1522.12V1913.17L3436.77 1841.76V1609.75L3314.54 1522.12Z" fill="#A8A191"/>
<path opacity="0.42" d="M1824.57 2456.55L738.158 3484.29C740.574 3486.7 743.559 3488.55 746.118 3490.96L1958.33 2539.05L1824.57 2456.55Z" fill="#E0C13F"/>
<path opacity="0.42" d="M2456.83 2451.28L2314.25 2539.19L3526.76 3490.96C3529.46 3488.54 3532.58 3486.42 3535.14 3483.85L2456.83 2451.28Z" fill="#E0C13F"/>
<path d="M530.058 1752.99C530.058 1753.14 473.911 1743.89 470.926 1742.75C420.18 1723.69 372.419 1696.95 328.071 1665.79C291.681 1640.19 257.282 1612.03 225.3 1581.31C197.297 1554.42 110.874 1489.55 180.098 1435.79C195.591 1423.7 209.806 1435.79 227.147 1443.33C305.185 1477.18 530.342 1658.4 530.342 1658.4C530.342 1658.4 533.328 1745.32 530.058 1752.99Z" fill="url(#paint35_linear_2_205)"/>
<path d="M912.712 1543.89L920.53 1536.77C920.814 1536.49 921.24 1536.21 921.667 1535.92L993.45 1484.58C996.577 1482.3 1000.56 1481.73 1004.11 1482.86L1119.1 1520.28C1121.09 1520.99 1122.94 1522.13 1124.36 1523.69C1130.05 1529.95 1127.63 1539.91 1119.82 1542.89L1107.59 1547.73C1105.46 1548.58 1103.04 1548.73 1100.77 1548.3L1061.4 1536.92C1058.56 1536.35 1055.71 1536.77 1053.15 1538.2C1039.22 1546.03 989.612 1573.2 946.116 1586.56C940.573 1588.28 934.744 1585.57 932.043 1580.45L912.712 1543.89Z" fill="url(#paint36_linear_2_205)"/>
<path d="M529.631 1752.57C529.631 1752.57 474.479 1686.71 540.15 1652.85C605.821 1619 747.255 1586 952.228 1512.32L969.143 1587.43C969.143 1587.43 609.659 1781.87 529.631 1752.57Z" fill="url(#paint37_linear_2_205)"/>
<path d="M4047.14 1383.3C4047.14 1383.3 4095.33 1416.72 4114.09 1464.94C4132.86 1513.17 4128.6 1554.85 4150.35 1602.21C4167.4 1639.48 4264.34 1971.91 4175.22 1954.13C4163.57 1951.85 4154.61 1942.46 4146.93 1933.37C4075 1848.02 4083.96 1736.06 4077.57 1630.94L4073.16 1589.98C4073.16 1589.98 4027.81 1549.58 4015.88 1502.49L4047.14 1383.3Z" fill="url(#paint38_linear_2_205)"/>
<path d="M4098.46 1497.52C4098.46 1497.52 4087.09 1504.49 4070.03 1490.27C4052.97 1476.04 4012.32 1443.61 4012.32 1443.61C4012.32 1443.61 3996.12 1435.36 3996.26 1443.61C3996.4 1451.85 3999.24 1470.92 4024.54 1490.97C4024.54 1490.97 4045.87 1509.18 4048.71 1518.57C4051.7 1528.1 4060.08 1553.13 4085.24 1570.06C4085.38 1570.06 4124.47 1532.37 4098.46 1497.52Z" fill="url(#paint39_linear_2_205)"/>
<path d="M4184.32 1954.84C4201.79 1955.55 4219.14 1945.6 4236.76 1934.36C4279.84 1906.9 4323.34 1880.31 4366.69 1853.42C4386.02 1841.48 4405.35 1829.38 4424.54 1817.29C4463.77 1792.39 4521.77 1756.55 4496.6 1700.08C4490.93 1687.27 4472.3 1678.17 4459.65 1676.46C4450.13 1675.18 4439.75 1677.46 4429.23 1681.59C4406.77 1690.54 4383.6 1708.33 4365.97 1719C4329.87 1740.76 4294.2 1763.38 4259.08 1786.99C4236.63 1802.21 4214.16 1817.71 4192.56 1834.22C4174.65 1847.87 4150.91 1863.23 4139.4 1883.58C4127.18 1905.34 4139.68 1929.52 4155.74 1943.04C4165.41 1951 4174.93 1954.42 4184.32 1954.84Z" fill="url(#paint40_linear_2_205)"/>
<path d="M4432.64 1853.71C4479.98 1811.17 4602.79 1727.54 4559.58 1647.87C4511.67 1559.69 4334.42 1714.73 4334.42 1714.73L4432.64 1853.71Z" fill="url(#paint41_linear_2_205)"/>
<path d="M4382.46 2784.28C4355.04 2679.02 4343.24 2521.41 4341.53 2413.17C4340.67 2359.39 4367.68 2162.67 4370.81 2108.89C4376.49 2007.05 4397.54 2026.53 4518.92 2052.43C4534.28 2055.7 4548.78 2061.95 4561.71 2070.78C4714.23 2175.04 4643.16 2413.87 4601.79 2548.58C4583.88 2607.04 4560.86 2676.31 4539.25 2733.64C4460.93 2802.06 4382.46 2784.28 4382.46 2784.28Z" fill="url(#paint42_linear_2_205)"/>
<path d="M4917.79 3265.5C4911.39 3259.11 4902.86 3254.27 4894.9 3249.29C4892.63 3247.87 4872.15 3233.07 4870.45 3230.94C4845.01 3200.21 4783.74 3108.75 4783.74 3108.75L4695.62 3174.46C4695.62 3174.46 4765.97 3240.48 4787.72 3294.24L4787.86 3294.1C4765.69 3345.03 4718.78 3426.53 4718.78 3426.53C4718.78 3426.53 4650.7 3498.93 4647.99 3503.77C4645.29 3508.61 4637.33 3519.27 4633.92 3538.77C4633.92 3538.77 4640.32 3565.79 4749.2 3506.61C4749.2 3506.61 4798.38 3483.71 4857.66 3421.41C4871.3 3408.89 4884.95 3396.52 4898.45 3384C4912.38 3371.2 4956.31 3335.21 4958.86 3326.38C4959.85 3322.98 4960.15 3320.13 4959.72 3317.42C4957.16 3297.79 4931 3278.88 4917.79 3265.5Z" fill="url(#paint43_linear_2_205)"/>
<path d="M4895.47 3249.57C4875.99 3270.05 4851.12 3286.98 4829.51 3299.51C4814.02 3308.46 4795.12 3316.43 4776.07 3319.84C4752.32 3368.63 4718.92 3426.53 4718.92 3426.53C4718.92 3426.53 4650.83 3498.93 4648.13 3503.77C4645.43 3508.61 4637.48 3519.27 4634.06 3538.76C4634.06 3538.76 4640.45 3565.79 4749.35 3506.61C4749.35 3506.61 4798.52 3483.71 4857.8 3421.41C4871.45 3408.89 4885.09 3396.52 4898.59 3383.99C4912.53 3371.2 4956.45 3335.2 4959 3326.38C4960 3322.97 4960.28 3320.13 4959.85 3317.57C4957.16 3297.79 4931.14 3278.88 4917.79 3265.36C4911.53 3259.11 4903.15 3254.41 4895.47 3249.57Z" fill="url(#paint44_linear_2_205)"/>
<path d="M4847.98 3159.1C4786.72 3043.46 4653.54 2818.85 4525.89 2682.87C4507.55 2663.37 4443.02 2699.36 4418.85 2713.31C4400.24 2724.12 4379.91 2749.86 4380.19 2772.34C4380.48 2790.97 4407.2 2834.07 4418.15 2848.01C4449.28 2887.13 4633.49 3141.61 4731.44 3256.54L4847.98 3159.1Z" fill="url(#paint45_linear_2_205)"/>
<path d="M4267.19 2181.73H4502.86C4503.15 2182.3 4503.58 2182.72 4503.86 2183.29L4504.14 2181.73H4667.89L4668.18 2182.01C4600.66 2212.31 4607.34 2233.36 4607.34 2233.36C4583.88 2338.34 4513.1 2466.64 4468.89 2477.74C4443.73 2528.95 4425.96 2583.15 4404.21 2621.55C4374.22 2674.89 4337.26 2746.73 4304 2798.08C4212.89 2848.15 4146.79 2784.14 4146.79 2784.14C4142.39 2675.46 4165.41 2537.06 4186.87 2430.8C4195.55 2388.13 4242.31 2257.11 4267.19 2181.73Z" fill="url(#paint46_linear_2_205)"/>
<path d="M4285.1 3471.05C4284.1 3462.09 4280.41 3452.98 4277.27 3444.17C4276.42 3441.6 4269.61 3417.28 4269.61 3414.58C4268.89 3374.75 4278.13 3264.93 4278.13 3264.93L4168.26 3261.24C4168.26 3261.24 4182.04 3356.69 4165.41 3412.3H4165.55C4116.51 3438.33 4029.1 3472.61 4029.1 3472.61C4029.1 3472.61 3930.73 3486.56 3925.61 3488.69C3920.35 3490.82 3907.56 3494.1 3892.78 3507.19C3892.78 3507.19 3880.84 3532.36 4002.94 3554.13C4002.94 3554.13 4055.67 3566.92 4140.82 3555.26C4159.3 3553.98 4177.64 3552.84 4196.12 3551.56C4215.01 3550.29 4271.73 3549.57 4279.27 3544.3C4282.11 3542.32 4284.1 3540.18 4285.52 3537.91C4295.75 3520.98 4287.09 3489.83 4285.1 3471.05Z" fill="url(#paint47_linear_2_205)"/>
<path d="M4193.41 3262.94C4195.55 3268.92 4197.25 3275.04 4198.96 3281.16C4201.23 3275.32 4203.36 3269.35 4205.5 3263.37L4193.41 3262.94Z" fill="#FFD9B6"/>
<path d="M4277.27 3444.17C4276.71 3442.74 4274.3 3433.93 4272.3 3426.24C4268.04 3428.38 4263.92 3430.51 4259.8 3432.5C4212.46 3455.12 4161.85 3451.71 4112.11 3440.04C4111.11 3439.75 4110.26 3439.62 4109.4 3439.33C4068.61 3457.4 4029.1 3472.9 4029.1 3472.9C4029.1 3472.9 3930.73 3486.99 3925.61 3488.97C3920.35 3491.11 3907.56 3494.38 3892.78 3507.47C3892.78 3507.47 3880.84 3532.64 4002.94 3554.41C4002.94 3554.41 4055.67 3567.21 4140.82 3555.55C4159.3 3554.26 4177.64 3553.13 4196.12 3551.84C4215.01 3550.57 4271.73 3549.86 4279.27 3544.6C4282.11 3542.6 4284.1 3540.47 4285.52 3538.2C4295.75 3521.12 4287.22 3489.97 4285.24 3471.19C4284.1 3461.95 4280.41 3452.98 4277.27 3444.17Z" fill="url(#paint48_linear_2_205)"/>
<path d="M4309.69 3317.85C4312.24 3166.07 4325.46 3084.57 4327.45 2967.07C4328.17 2925.25 4327.17 2883.29 4323.04 2841.76C4318.93 2799.79 4307.7 2739.48 4263.35 2718.28C4237.33 2705.9 4201.37 2707.05 4176.35 2721.41C4151.9 2735.35 4146.93 2764.23 4146.93 2789.97C4146.79 2839.91 4157.02 3159.53 4161.86 3310.6C4161.57 3310.6 4309.69 3317.85 4309.69 3317.85Z" fill="url(#paint49_linear_2_205)"/>
<path d="M4267.76 1436.49L4283.68 1500.64L4246.71 1509.75L4267.76 1436.49Z" fill="url(#paint50_linear_2_205)"/>
<path d="M4372.37 1504.78C4371.95 1525.26 4367.96 1645.74 4367.96 1645.74C4380.33 1659.82 4440.32 1664.8 4465.62 1643.47C4485.8 1626.39 4487.94 1611.18 4487.94 1611.18L4480.54 1435.21L4372.37 1504.78Z" fill="url(#paint51_linear_2_205)"/>
<path d="M4471.59 1301.78L4478.13 1364.52L4488.22 1460.25L4491.06 1487.13C4430.09 1590.83 4329.16 1601.79 4296.47 1567.21C4263.77 1532.65 4248.99 1334.79 4248.99 1334.79L4471.59 1301.78Z" fill="url(#paint52_linear_2_205)"/>
<path d="M4444.01 1576.47C4444.01 1576.47 4367.11 1414.02 4343.24 1400.51C4319.35 1387 4239.33 1406.05 4196.68 1342.33C4154.61 1279.31 4180.06 1246.59 4196.68 1243.47C4213.31 1240.34 4244.44 1302.07 4299.59 1265.37C4355.74 1227.96 4470.17 1227.96 4487.79 1272.63C4487.79 1272.63 4559.43 1279.88 4543.8 1377.74C4528.17 1475.61 4501.16 1557.69 4477.27 1564.94L4444.01 1576.47Z" fill="url(#paint53_linear_2_205)"/>
<path d="M4397.39 1399.79C4422.12 1419.56 4420.99 1476.89 4373.37 1508.61L4353.89 1414.59C4356.31 1399.94 4381.19 1386.7 4397.39 1399.79Z" fill="url(#paint54_linear_2_205)"/>
<path d="M4476.85 1608.9C4408.62 1613.45 4303.71 1629.24 4278.14 1705.77C4264.49 1746.59 4262.64 1791.26 4266.9 1833.79C4270.31 1867.22 4273.15 1900.64 4274.58 1934.22C4276.85 1990.97 4279.98 2054.85 4260.36 2109.18L4178.63 2328.67C4178.63 2328.67 4457.66 2425.11 4674.43 2354.27C4674.43 2354.27 4659.36 1851.42 4611.74 1733.23C4593.41 1687.56 4542.95 1604.63 4476.85 1608.9Z" fill="url(#paint55_linear_2_205)"/>
<path d="M2825.55 2580.45C2767.98 2670.49 2784.33 2789.12 2864.08 2860.1L2964.86 2949.86C3017.45 2996.8 3026.41 3075.75 2985.46 3133.21L2722.78 3502.2C2672.04 3573.47 2569.27 3579.73 2509.14 3516.14C2445.32 3448.44 2387.89 3353.7 2336 3188.12C2238.5 2877.02 2475.31 2593.24 2861.66 2050.43C3248.01 1507.61 3438.2 1191.11 3763.85 1181.59C3940.25 1176.47 4049 1201.07 4134.28 1240.9C4211.75 1277.03 4236.06 1375.76 4186.45 1445.31L3923.76 1814.59C3882.83 1872.05 3805.36 1889.4 3743.95 1854.99L3626.26 1789.12C3533.01 1736.91 3415.74 1760.25 3349.51 1844.18L2825.55 2580.45Z" fill="url(#paint56_linear_2_205)"/>
<path d="M3265.35 1793.96C3167.98 1932.22 3008.78 2158.11 3008.78 2158.11C3008.78 2158.11 2849.57 2384 2752.21 2522.27C2654.83 2660.53 2736.43 2787.13 2956.75 2942.6L2864.21 2860.1C2784.47 2788.98 2768.13 2670.49 2825.69 2580.45L3349.5 1844.31C3415.74 1760.39 3533 1737.06 3626.26 1789.27L3728.88 1846.73L3729.6 1845.6C3509.42 1690.12 3362.86 1655.7 3265.35 1793.96Z" fill="url(#paint57_linear_2_205)"/>
<path d="M3955.32 1489.13C3955.32 1489.13 3955.6 1446.03 3972.1 1444.75C3988.59 1443.46 3970.24 1537.92 3970.24 1537.92L3955.32 1489.13Z" fill="url(#paint58_linear_2_205)"/>
<path d="M3898.04 1399.79C3900.59 1393.82 3908.42 1392.25 3912.96 1396.81C3927.03 1410.89 3956.32 1450.15 3966.41 1485.28C3980.62 1535.07 3972.52 1576.18 3989.86 1625.39C4003.51 1664.09 4069.32 2004.06 3982.18 1978.02C3970.81 1974.62 3962.71 1964.51 3955.89 1954.7C3892.06 1863.09 3911.4 1752.56 3914.66 1647.16L3913.96 1605.91C3913.96 1605.91 3907.42 1571.77 3886.38 1537.92C3885.25 1536.07 3868.89 1471.35 3866.05 1454.7C3865.77 1452.99 3866.05 1451.29 3866.62 1449.58L3898.04 1399.79Z" fill="url(#paint59_linear_2_205)"/>
<path d="M3999.39 1984.43C4016.87 1985.14 4034.21 1975.18 4051.83 1963.94C4094.91 1936.49 4138.4 1909.89 4181.76 1883.01C4201.09 1871.05 4220.42 1858.96 4239.61 1846.88C4278.84 1821.98 4336.83 1786.13 4311.68 1729.66C4306 1716.86 4287.37 1707.76 4274.72 1706.05C4265.19 1704.77 4254.82 1707.05 4244.3 1711.31C4221.84 1720.28 4198.67 1738.06 4181.05 1748.72C4144.94 1770.49 4109.27 1793.11 4074.15 1816.72C4051.7 1831.94 4029.23 1847.45 4007.63 1863.95C3989.72 1877.6 3965.99 1892.97 3954.47 1913.3C3942.25 1935.07 3954.75 1959.25 3970.81 1972.77C3980.48 1980.44 3989.86 1984.01 3999.39 1984.43Z" fill="url(#paint60_linear_2_205)"/>
<path d="M4247.57 1883.29C4294.9 1840.76 4417.72 1757.11 4374.5 1677.46C4326.6 1589.26 4149.35 1744.32 4149.35 1744.32L4247.57 1883.29Z" fill="url(#paint61_linear_2_205)"/>
</g>
<defs>
<linearGradient id="paint0_linear_2_205" x1="-0.000107832" y1="1346.69" x2="313.831" y2="1346.69" gradientUnits="userSpaceOnUse">
<stop stop-color="#071786"/>
<stop offset="0.1509" stop-color="#05136B"/>
<stop offset="0.3236" stop-color="#041055"/>
<stop offset="0.5107" stop-color="#030E45"/>
<stop offset="0.7204" stop-color="#020C3B"/>
<stop offset="1" stop-color="#020C38"/>
</linearGradient>
<linearGradient id="paint1_linear_2_205" x1="401.801" y1="2049.38" x2="745.471" y2="2777.37" gradientUnits="userSpaceOnUse">
<stop stop-color="#071786"/>
<stop offset="0.1991" stop-color="#06167E"/>
<stop offset="0.512" stop-color="#051367"/>
<stop offset="0.8976" stop-color="#030E43"/>
<stop offset="1" stop-color="#020C38"/>
</linearGradient>
<linearGradient id="paint2_linear_2_205" x1="228.356" y1="1990.19" x2="228.356" y2="2864.9" gradientUnits="userSpaceOnUse">
<stop stop-color="#074FC0"/>
<stop offset="0.1616" stop-color="#06329E"/>
<stop offset="0.2876" stop-color="#061F88"/>
</linearGradient>
<linearGradient id="paint3_linear_2_205" x1="161.987" y1="3437.81" x2="182.544" y2="3437.81" gradientUnits="userSpaceOnUse">
<stop stop-color="#074FC0"/>
<stop offset="0.1616" stop-color="#06329E"/>
<stop offset="0.2876" stop-color="#061F88"/>
</linearGradient>
<linearGradient id="paint4_linear_2_205" x1="149.943" y1="3357.7" x2="360.244" y2="3567.84" gradientUnits="userSpaceOnUse">
<stop stop-color="#074FC0"/>
<stop offset="0.1616" stop-color="#06329E"/>
<stop offset="0.2876" stop-color="#061F88"/>
</linearGradient>
<linearGradient id="paint5_linear_2_205" x1="243.652" y1="3515.89" x2="243.652" y2="2754.59" gradientUnits="userSpaceOnUse">
<stop stop-color="#FFD1C1"/>
<stop offset="0.2699" stop-color="#FFCEBE"/>
<stop offset="0.5038" stop-color="#FFC5B3"/>
<stop offset="0.7243" stop-color="#FFB6A1"/>
<stop offset="0.9354" stop-color="#FFA288"/>
<stop offset="1" stop-color="#FF9A7F"/>
</linearGradient>
<linearGradient id="paint6_linear_2_205" x1="215.884" y1="3515.89" x2="215.884" y2="2754.59" gradientUnits="userSpaceOnUse">
<stop stop-color="#074FC0"/>
<stop offset="0.1616" stop-color="#06329E"/>
<stop offset="0.2876" stop-color="#061F88"/>
</linearGradient>
<linearGradient id="paint7_linear_2_205" x1="213.389" y1="1196.49" x2="516.59" y2="1196.49" gradientUnits="userSpaceOnUse">
<stop stop-color="#071786"/>
<stop offset="0.1509" stop-color="#05136B"/>
<stop offset="0.3236" stop-color="#041055"/>
<stop offset="0.5107" stop-color="#030E45"/>
<stop offset="0.7204" stop-color="#020C3B"/>
<stop offset="1" stop-color="#020C38"/>
</linearGradient>
<linearGradient id="paint8_linear_2_205" x1="476.574" y1="1614.48" x2="774.717" y2="1364.8" gradientUnits="userSpaceOnUse">
<stop stop-color="#5964FF"/>
<stop offset="0.9973" stop-color="#00BEB9"/>
</linearGradient>
<linearGradient id="paint9_linear_2_205" x1="345.928" y1="2077.44" x2="345.928" y2="1287.91" gradientUnits="userSpaceOnUse">
<stop stop-color="#FFD1C1"/>
<stop offset="0.4889" stop-color="#FFCFBF"/>
<stop offset="0.665" stop-color="#FFCAB8"/>
<stop offset="0.7905" stop-color="#FFC0AD"/>
<stop offset="0.892" stop-color="#FFB29C"/>
<stop offset="0.9779" stop-color="#FFA086"/>
<stop offset="1" stop-color="#FF9A7F"/>
</linearGradient>
<linearGradient id="paint10_linear_2_205" x1="382.414" y1="2162.57" x2="382.414" y2="1425.03" gradientUnits="userSpaceOnUse">
<stop stop-color="#F9FBFC"/>
<stop offset="0.2923" stop-color="#F1F6FD"/>
<stop offset="0.733" stop-color="#DDE6FE"/>
<stop offset="0.9973" stop-color="#CDDBFF"/>
</linearGradient>
<linearGradient id="paint11_linear_2_205" x1="228.53" y1="1417.95" x2="228.53" y2="2867.28" gradientUnits="userSpaceOnUse">
<stop stop-color="#5964FF"/>
<stop offset="0.9973" stop-color="#00BEB9"/>
</linearGradient>
<linearGradient id="paint12_linear_2_205" x1="481.801" y1="-180.037" x2="481.801" y2="2169.01" gradientUnits="userSpaceOnUse">
<stop stop-color="#5964FF"/>
<stop offset="0.9973" stop-color="#00BEB9"/>
</linearGradient>
<linearGradient id="paint13_linear_2_205" x1="388.89" y1="1600.24" x2="281.638" y2="1752.51" gradientUnits="userSpaceOnUse">
<stop stop-color="#E7E6FF"/>
<stop offset="0.3393" stop-color="#C9D2F8"/>
<stop offset="0.7637" stop-color="#AABDF1"/>
<stop offset="1" stop-color="#9EB5EE"/>
</linearGradient>
<linearGradient id="paint14_linear_2_205" x1="278.876" y1="1247.8" x2="497.468" y2="1247.8" gradientUnits="userSpaceOnUse">
<stop stop-color="#FFD1C1"/>
<stop offset="0.3861" stop-color="#FFCFBF"/>
<stop offset="0.5877" stop-color="#FFC9B7"/>
<stop offset="0.7467" stop-color="#FFBDA9"/>
<stop offset="0.8825" stop-color="#FFAE97"/>
<stop offset="1" stop-color="#FF9A7F"/>
</linearGradient>
<linearGradient id="paint15_linear_2_205" x1="451.961" y1="1231.56" x2="494.804" y2="1305.71" gradientUnits="userSpaceOnUse">
<stop stop-color="#EEA281"/>
<stop offset="0.246" stop-color="#EE9C7B"/>
<stop offset="0.5823" stop-color="#ED8A6C"/>
<stop offset="0.9693" stop-color="#EC6E52"/>
<stop offset="1" stop-color="#EC6B50"/>
</linearGradient>
<linearGradient id="paint16_linear_2_205" x1="243.034" y1="1145.2" x2="424.044" y2="1145.2" gradientUnits="userSpaceOnUse">
<stop stop-color="#030F4B"/>
<stop offset="0.1501" stop-color="#030E45"/>
<stop offset="0.5141" stop-color="#020C3B"/>
<stop offset="1" stop-color="#020C38"/>
</linearGradient>
<linearGradient id="paint17_linear_2_205" x1="285.326" y1="1316.91" x2="285.326" y2="1198.25" gradientUnits="userSpaceOnUse">
<stop stop-color="#FFD1C1"/>
<stop offset="0.3073" stop-color="#FFCCBB"/>
<stop offset="0.729" stop-color="#FFBDA9"/>
<stop offset="1" stop-color="#FFB19A"/>
</linearGradient>
<linearGradient id="paint18_linear_2_205" x1="920.191" y1="1060.32" x2="1065.86" y2="1038.41" gradientUnits="userSpaceOnUse">
<stop stop-color="#FFD1C1"/>
<stop offset="0.3445" stop-color="#FFBAA5"/>
<stop offset="0.7588" stop-color="#FFA389"/>
<stop offset="1" stop-color="#FF9A7F"/>
</linearGradient>
<linearGradient id="paint19_linear_2_205" x1="964.581" y1="1075.12" x2="836.324" y2="1491.07" gradientUnits="userSpaceOnUse">
<stop stop-color="#5964FF"/>
<stop offset="0.9973" stop-color="#00BEB9"/>
</linearGradient>
<linearGradient id="paint20_linear_2_205" x1="986.266" y1="986.983" x2="1044.84" y2="968.632" gradientUnits="userSpaceOnUse">
<stop stop-color="#FFD1C1"/>
<stop offset="0.3445" stop-color="#FFBAA5"/>
<stop offset="0.7588" stop-color="#FFA389"/>
<stop offset="1" stop-color="#FF9A7F"/>
</linearGradient>
<linearGradient id="paint21_linear_2_205" x1="412.66" y1="1533.42" x2="412.66" y2="1411.68" gradientUnits="userSpaceOnUse">
<stop stop-color="#E7E6FF"/>
<stop offset="0.3393" stop-color="#C9D2F8"/>
<stop offset="0.7637" stop-color="#AABDF1"/>
<stop offset="1" stop-color="#9EB5EE"/>
</linearGradient>
<linearGradient id="paint22_linear_2_205" x1="446.539" y1="1515.51" x2="446.539" y2="1411.68" gradientUnits="userSpaceOnUse">
<stop stop-color="#F9FBFC"/>
<stop offset="0.9973" stop-color="#CDDBFF"/>
</linearGradient>
<linearGradient id="paint23_linear_2_205" x1="329.484" y1="1538.66" x2="329.484" y2="1405.34" gradientUnits="userSpaceOnUse">
<stop stop-color="#F9FBFC"/>
<stop offset="0.3069" stop-color="#F0F5FD"/>
<stop offset="0.8031" stop-color="#D8E3FE"/>
<stop offset="0.9973" stop-color="#CDDBFF"/>
</linearGradient>
<linearGradient id="paint24_linear_2_205" x1="379.685" y1="1533.42" x2="379.685" y2="1493.47" gradientUnits="userSpaceOnUse">
<stop stop-color="#E7E6FF"/>
<stop offset="0.3393" stop-color="#C9D2F8"/>
<stop offset="0.7637" stop-color="#AABDF1"/>
<stop offset="1" stop-color="#9EB5EE"/>
</linearGradient>
<linearGradient id="paint25_linear_2_205" x1="1584.34" y1="676.829" x2="1543.75" y2="3908.23" gradientUnits="userSpaceOnUse">
<stop stop-color="#E3EBFD"/>
<stop offset="0.9973" stop-color="#8F8BFF"/>
</linearGradient>
<linearGradient id="paint26_linear_2_205" x1="2612.37" y1="689.744" x2="2571.78" y2="3921.13" gradientUnits="userSpaceOnUse">
<stop stop-color="#E3EBFD"/>
<stop offset="0.9973" stop-color="#8F8BFF"/>
</linearGradient>
<linearGradient id="paint27_linear_2_205" x1="2614.83" y1="689.77" x2="2574.23" y2="3921.19" gradientUnits="userSpaceOnUse">
<stop stop-color="#E3EBFD"/>
<stop offset="0.9973" stop-color="#8F8BFF"/>
</linearGradient>
<linearGradient id="paint28_linear_2_205" x1="2617.28" y1="689.802" x2="2576.69" y2="3921.22" gradientUnits="userSpaceOnUse">
<stop stop-color="#E3EBFD"/>
<stop offset="0.9973" stop-color="#8F8BFF"/>
</linearGradient>
<linearGradient id="paint29_linear_2_205" x1="2148.07" y1="683.901" x2="2107.48" y2="3915.34" gradientUnits="userSpaceOnUse">
<stop stop-color="#E3EBFD"/>
<stop offset="0.9973" stop-color="#8F8BFF"/>
</linearGradient>
<linearGradient id="paint30_linear_2_205" x1="2150.52" y1="683.935" x2="2109.93" y2="3915.35" gradientUnits="userSpaceOnUse">
<stop stop-color="#E3EBFD"/>
<stop offset="0.9973" stop-color="#8F8BFF"/>
</linearGradient>
<linearGradient id="paint31_linear_2_205" x1="2152.98" y1="683.958" x2="2112.39" y2="3915.39" gradientUnits="userSpaceOnUse">
<stop stop-color="#E3EBFD"/>
<stop offset="0.9973" stop-color="#8F8BFF"/>
</linearGradient>
<linearGradient id="paint32_linear_2_205" x1="2155.43" y1="683.972" x2="2114.84" y2="3915.44" gradientUnits="userSpaceOnUse">
<stop stop-color="#E3EBFD"/>
<stop offset="0.9973" stop-color="#8F8BFF"/>
</linearGradient>
<linearGradient id="paint33_linear_2_205" x1="2157.89" y1="684.02" x2="2117.29" y2="3915.46" gradientUnits="userSpaceOnUse">
<stop stop-color="#E3EBFD"/>
<stop offset="0.9973" stop-color="#8F8BFF"/>
</linearGradient>
<linearGradient id="paint34_linear_2_205" x1="2136.55" y1="1737.41" x2="2136.55" y2="3560.1" gradientUnits="userSpaceOnUse">
<stop stop-color="#FFFF3D"/>
<stop offset="0.1434" stop-color="#FFE73C"/>
<stop offset="0.3265" stop-color="#FFCF3B"/>
<stop offset="0.5214" stop-color="#FFBE3A"/>
<stop offset="0.7346" stop-color="#FFB439"/>
<stop offset="1" stop-color="#FFB139"/>
</linearGradient>
<linearGradient id="paint35_linear_2_205" x1="338.719" y1="1426.99" x2="346.681" y2="1757.36" gradientUnits="userSpaceOnUse">
<stop stop-color="#5964FF"/>
<stop offset="0.9973" stop-color="#00BEB9"/>
</linearGradient>
<linearGradient id="paint36_linear_2_205" x1="937.692" y1="1500.51" x2="1094.92" y2="1591.22" gradientUnits="userSpaceOnUse">
<stop stop-color="#FFD1C1"/>
<stop offset="0.3445" stop-color="#FFBAA5"/>
<stop offset="0.7588" stop-color="#FFA389"/>
<stop offset="1" stop-color="#FF9A7F"/>
</linearGradient>
<linearGradient id="paint37_linear_2_205" x1="959.393" y1="1527.97" x2="516.937" y2="1732.83" gradientUnits="userSpaceOnUse">
<stop stop-color="#5964FF"/>
<stop offset="0.9973" stop-color="#00BEB9"/>
</linearGradient>
<linearGradient id="paint38_linear_2_205" x1="3936.55" y1="1561.32" x2="4299.38" y2="1786.69" gradientUnits="userSpaceOnUse">
<stop stop-color="#FFD1C1"/>
<stop offset="0.3861" stop-color="#FFCFBF"/>
<stop offset="0.5877" stop-color="#FFC9B7"/>
<stop offset="0.7467" stop-color="#FFBDA9"/>
<stop offset="0.8825" stop-color="#FFAE97"/>
<stop offset="1" stop-color="#FF9A7F"/>
</linearGradient>
<linearGradient id="paint39_linear_2_205" x1="4095.16" y1="1564.74" x2="4021.77" y2="1427.57" gradientUnits="userSpaceOnUse">
<stop stop-color="#FFD1C1"/>
<stop offset="0.3861" stop-color="#FFCFBF"/>
<stop offset="0.5877" stop-color="#FFC9B7"/>
<stop offset="0.7467" stop-color="#FFBDA9"/>
<stop offset="0.8825" stop-color="#FFAE97"/>
<stop offset="1" stop-color="#FF9A7F"/>
</linearGradient>
<linearGradient id="paint40_linear_2_205" x1="4485.96" y1="1685.27" x2="4157.93" y2="1947.65" gradientUnits="userSpaceOnUse">
<stop stop-color="#FFD1C1"/>
<stop offset="0.3861" stop-color="#FFCFBF"/>
<stop offset="0.5877" stop-color="#FFC9B7"/>
<stop offset="0.7467" stop-color="#FFBDA9"/>
<stop offset="0.8825" stop-color="#FFAE97"/>
<stop offset="1" stop-color="#FF9A7F"/>
</linearGradient>
<linearGradient id="paint41_linear_2_205" x1="4333.57" y1="1730.43" x2="4566.7" y2="1741.81" gradientUnits="userSpaceOnUse">
<stop stop-color="#E3EBFD"/>
<stop offset="0.9973" stop-color="#8F8BFF"/>
</linearGradient>
<linearGradient id="paint42_linear_2_205" x1="4498.15" y1="2031.67" x2="4498.15" y2="2786.35" gradientUnits="userSpaceOnUse">
<stop stop-color="#071786"/>
<stop offset="0.1509" stop-color="#05136B"/>
<stop offset="0.3236" stop-color="#041055"/>
<stop offset="0.5107" stop-color="#030E45"/>
<stop offset="0.7204" stop-color="#020C3B"/>
<stop offset="1" stop-color="#020C38"/>
</linearGradient>
<linearGradient id="paint43_linear_2_205" x1="4820.45" y1="3462.93" x2="4649.9" y2="3193.5" gradientUnits="userSpaceOnUse">
<stop stop-color="#FFD1C1"/>
<stop offset="0.3861" stop-color="#FFCFBF"/>
<stop offset="0.5877" stop-color="#FFC9B7"/>
<stop offset="0.7467" stop-color="#FFBDA9"/>
<stop offset="0.8825" stop-color="#FFAE97"/>
<stop offset="1" stop-color="#FF9A7F"/>
</linearGradient>
<linearGradient id="paint44_linear_2_205" x1="4607.21" y1="3484.74" x2="4958.51" y2="3311.43" gradientUnits="userSpaceOnUse">
<stop stop-color="#071786"/>
<stop offset="0.1509" stop-color="#05136B"/>
<stop offset="0.3236" stop-color="#041055"/>
<stop offset="0.5107" stop-color="#030E45"/>
<stop offset="0.7204" stop-color="#020C3B"/>
<stop offset="1" stop-color="#020C38"/>
</linearGradient>
<linearGradient id="paint45_linear_2_205" x1="4778.49" y1="3226.96" x2="4443.5" y2="2697.72" gradientUnits="userSpaceOnUse">
<stop stop-color="#071786"/>
<stop offset="0.1509" stop-color="#05136B"/>
<stop offset="0.3236" stop-color="#041055"/>
<stop offset="0.5107" stop-color="#030E45"/>
<stop offset="0.7204" stop-color="#020C3B"/>
<stop offset="1" stop-color="#020C38"/>
</linearGradient>
<linearGradient id="paint46_linear_2_205" x1="4407.15" y1="2181.77" x2="4407.15" y2="2956.12" gradientUnits="userSpaceOnUse">
<stop stop-color="#071786"/>
<stop offset="0.1509" stop-color="#05136B"/>
<stop offset="0.3236" stop-color="#041055"/>
<stop offset="0.5107" stop-color="#030E45"/>
<stop offset="0.7204" stop-color="#020C3B"/>
<stop offset="1" stop-color="#020C38"/>
</linearGradient>
<linearGradient id="paint47_linear_2_205" x1="4091.43" y1="3560.32" x2="4091.43" y2="3261.28" gradientUnits="userSpaceOnUse">
<stop stop-color="#FFD1C1"/>
<stop offset="0.3861" stop-color="#FFCFBF"/>
<stop offset="0.5877" stop-color="#FFC9B7"/>
<stop offset="0.7467" stop-color="#FFBDA9"/>
<stop offset="0.8825" stop-color="#FFAE97"/>
<stop offset="1" stop-color="#FF9A7F"/>
</linearGradient>
<linearGradient id="paint48_linear_2_205" x1="3892.5" y1="3493.28" x2="4290.36" y2="3493.28" gradientUnits="userSpaceOnUse">
<stop stop-color="#071786"/>
<stop offset="0.1509" stop-color="#05136B"/>
<stop offset="0.3236" stop-color="#041055"/>
<stop offset="0.5107" stop-color="#030E45"/>
<stop offset="0.7204" stop-color="#020C3B"/>
<stop offset="1" stop-color="#020C38"/>
</linearGradient>
<linearGradient id="paint49_linear_2_205" x1="4237.09" y1="3317.91" x2="4237.09" y2="2709.68" gradientUnits="userSpaceOnUse">
<stop stop-color="#071786"/>
<stop offset="0.1509" stop-color="#05136B"/>
<stop offset="0.3236" stop-color="#041055"/>
<stop offset="0.5107" stop-color="#030E45"/>
<stop offset="0.7204" stop-color="#020C3B"/>
<stop offset="1" stop-color="#020C38"/>
</linearGradient>
<linearGradient id="paint50_linear_2_205" x1="4288.97" y1="1491.49" x2="4249.28" y2="1468.6" gradientUnits="userSpaceOnUse">
<stop stop-color="#E2B691"/>
<stop offset="1" stop-color="#EF9367"/>
</linearGradient>
<linearGradient id="paint51_linear_2_205" x1="4503.86" y1="1586.9" x2="4369.65" y2="1509.47" gradientUnits="userSpaceOnUse">
<stop stop-color="#FFD1C1"/>
<stop offset="0.3861" stop-color="#FFCFBF"/>
<stop offset="0.5877" stop-color="#FFC9B7"/>
<stop offset="0.7467" stop-color="#FFBDA9"/>
<stop offset="0.8825" stop-color="#FFAE97"/>
<stop offset="1" stop-color="#FF9A7F"/>
</linearGradient>
<linearGradient id="paint52_linear_2_205" x1="4486.53" y1="1494.82" x2="4238.95" y2="1351.98" gradientUnits="userSpaceOnUse">
<stop stop-color="#FFD1C1"/>
<stop offset="0.3861" stop-color="#FFCFBF"/>
<stop offset="0.5877" stop-color="#FFC9B7"/>
<stop offset="0.7467" stop-color="#FFBDA9"/>
<stop offset="0.8825" stop-color="#FFAE97"/>
<stop offset="1" stop-color="#FF9A7F"/>
</linearGradient>
<linearGradient id="paint53_linear_2_205" x1="4546.07" y1="1407.3" x2="4173.7" y2="1407.3" gradientUnits="userSpaceOnUse">
<stop stop-color="#071786"/>
<stop offset="0.1509" stop-color="#05136B"/>
<stop offset="0.3236" stop-color="#041055"/>
<stop offset="0.5107" stop-color="#030E45"/>
<stop offset="0.7204" stop-color="#020C3B"/>
<stop offset="1" stop-color="#020C38"/>
</linearGradient>
<linearGradient id="paint54_linear_2_205" x1="4408.57" y1="1467.39" x2="4343.7" y2="1429.96" gradientUnits="userSpaceOnUse">
<stop stop-color="#FFD1C1"/>
<stop offset="0.3861" stop-color="#FFCFBF"/>
<stop offset="0.5877" stop-color="#FFC9B7"/>
<stop offset="0.7467" stop-color="#FFBDA9"/>
<stop offset="0.8825" stop-color="#FFAE97"/>
<stop offset="1" stop-color="#FF9A7F"/>
</linearGradient>
<linearGradient id="paint55_linear_2_205" x1="4738.81" y1="1919.9" x2="4279.38" y2="2070.12" gradientUnits="userSpaceOnUse">
<stop stop-color="#E3EBFD"/>
<stop offset="0.9973" stop-color="#8F8BFF"/>
</linearGradient>
<linearGradient id="paint56_linear_2_205" x1="2352.41" y1="3408.98" x2="3967.09" y2="1120.32" gradientUnits="userSpaceOnUse">
<stop stop-color="#074FC0"/>
<stop offset="0.1616" stop-color="#06329E"/>
<stop offset="0.2876" stop-color="#061F88"/>
</linearGradient>
<linearGradient id="paint57_linear_2_205" x1="3113.97" y1="2226.81" x2="2630.86" y2="1874.47" gradientUnits="userSpaceOnUse">
<stop stop-color="#074FC0"/>
<stop offset="0.1616" stop-color="#06329E"/>
<stop offset="0.2876" stop-color="#061F88"/>
</linearGradient>
<linearGradient id="paint58_linear_2_205" x1="3993.8" y1="1455.44" x2="3969.5" y2="1490.5" gradientUnits="userSpaceOnUse">
<stop stop-color="#FFD1C1"/>
<stop offset="0.3861" stop-color="#FFCFBF"/>
<stop offset="0.5877" stop-color="#FFC9B7"/>
<stop offset="0.7467" stop-color="#FFBDA9"/>
<stop offset="0.8825" stop-color="#FFAE97"/>
<stop offset="1" stop-color="#FF9A7F"/>
</linearGradient>
<linearGradient id="paint59_linear_2_205" x1="3776.96" y1="1559.23" x2="4122.67" y2="1820.98" gradientUnits="userSpaceOnUse">
<stop stop-color="#FFD1C1"/>
<stop offset="0.3861" stop-color="#FFCFBF"/>
<stop offset="0.5877" stop-color="#FFC9B7"/>
<stop offset="0.7467" stop-color="#FFBDA9"/>
<stop offset="0.8825" stop-color="#FFAE97"/>
<stop offset="1" stop-color="#FF9A7F"/>
</linearGradient>
<linearGradient id="paint60_linear_2_205" x1="4300.94" y1="1714.79" x2="3972.91" y2="1977.19" gradientUnits="userSpaceOnUse">
<stop stop-color="#FFD1C1"/>
<stop offset="0.3861" stop-color="#FFCFBF"/>
<stop offset="0.5877" stop-color="#FFC9B7"/>
<stop offset="0.7467" stop-color="#FFBDA9"/>
<stop offset="0.8825" stop-color="#FFAE97"/>
<stop offset="1" stop-color="#FF9A7F"/>
</linearGradient>
<linearGradient id="paint61_linear_2_205" x1="4137.81" y1="1520.65" x2="4348.29" y2="1842.47" gradientUnits="userSpaceOnUse">
<stop stop-color="#E3EBFD"/>
<stop offset="0.9973" stop-color="#8F8BFF"/>
</linearGradient>
<clipPath id="clip0_2_205">
<rect width="4960" height="3583" fill="white"/>
</clipPath>
</defs>
</svg>
